:FULLY-SPECIFIED
:FORCE-ALL-JOINTS-BE-3DOF
:DEGREES
204
root 4.87591 15.066 -25.4314 7.0953 -1.42379 5.68593
lfemur 7.62427 -1.45586 0.717171
ltibia 5.76194 0 0
lfoot -35.5287 -12.8965 0
ltoes 47.0946 0 0
rfemur -30.9913 -19.4411 -8.82518
rtibia 50.3923 0 0
rfoot -26.6516 17.682 0
rtoes 60.0836 0 0
lowerback -3.43492 -1.60624 -0.393478
upperback -0.589996 -2.039 -7.72109
thorax 1.04766 -1.02546 -7.9427
lowerneck -11.6835 0.376903 6.72006
upperneck 3.77733 -0.673781 2.51755
head 3.29033 -0.109608 -0.400752
lclavicle -2.28336e-14 -2.46346e-14 0
lhumerus -58.8721 -46.6311 115.716
lradius 54.0648 0 0
lwrist 26.5094 0 0
lhand 40.2879 30.6945 0
lfingers 7.12502 0 0
lthumb 62.6332 41.3754 0
rclavicle -2.28336e-14 -2.46346e-14 0
rhumerus -3.79851 -13.3516 -12.3375
rradius 57.3863 0 0
rwrist -24.0785 0 0
rhand -20.8922 -49.9791 0
rfingers 7.12502 0 0
rthumb 5.32621 -438.142 0
205
root 4.85844 15.0453 -25.4444 7.14443 -1.66512 5.65981
lfemur 7.77373 -1.44571 0.691963
ltibia 5.64567 0 0
lfoot -36.1232 -12.2446 0
ltoes 46.8712 0 0
rfemur -31.5244 -19.8187 -8.66657
rtibia 50.8507 0 0
rfoot -26.4829 18.1731 0
rtoes 60.2318 0 0
lowerback -3.27617 -1.48144 -0.422796
upperback -0.63477 -1.88108 -7.71483
thorax 0.935054 -0.948812 -7.90368
lowerneck -11.5422 0.370939 6.94623
upperneck 3.8502 -0.702661 2.44719
head 3.2882 -0.12214 -0.46545
lclavicle -2.26615e-14 -3.33958e-14 0
lhumerus -59.2096 -46.9624 116.228
lradius 53.9907 0 0
lwrist 25.9978 0 0
lhand 40.3788 30.1548 0
lfingers 7.12502 0 0
lthumb 62.7085 40.7378 0
rclavicle -2.26615e-14 -3.33958e-14 0
rhumerus -2.50207 -20.2423 -12.7942
rradius 52.7451 0 0
rwrist -22.4045 0 0
rhand -30.5263 -55.2371 0
rfingers 7.12502 0 0
rthumb -3.82569 -445.182 0
206
root 4.83767 15.0448 -25.4602 7.23237 -1.48034 5.52148
lfemur 7.28793 -1.81063 0.926245
ltibia 6.10198 0 0
lfoot -35.886 -11.9947 0
ltoes 47.0832 0 0
rfemur -31.6678 -19.9795 -8.38586
rtibia 50.9978 0 0
rfoot -26.6168 18.1716 0
rtoes 60.2332 0 0
lowerback -3.0056 -1.51853 -0.469476
upperback -0.642628 -1.94347 -7.57461
thorax 0.774476 -0.982169 -7.71656
lowerneck -11.429 0.448566 6.88665
upperneck 3.75652 -0.572772 2.38547
head 3.23691 -0.0651636 -0.466898
lclavicle -1.90631e-14 -2.58862e-14 0
lhumerus -59.274 -46.7435 116.316
lradius 54.178 0 0
lwrist 25.9635 0 0
lhand 39.7909 29.9561 0
lfingers 7.12502 0 0
lthumb 62.2129 41.1138 0
rclavicle -1.90631e-14 -2.58862e-14 0
rhumerus -3.53565 -21.8706 -13.408
rradius 55.6228 0 0
rwrist -22.4695 0 0
rhand -33.8525 -56.4703 0
rfingers 7.12502 0 0
rthumb -7.02944 -474.027 0
207
root 4.81544 15.0443 -25.4772 7.32651 -1.28252 5.37338
lfemur 6.76784 -2.20131 1.17706
ltibia 6.5905 0 0
lfoot -35.632 -11.7272 0
ltoes 47.3102 0 0
rfemur -31.8214 -20.1516 -8.08533
rtibia 51.1553 0 0
rfoot -26.7602 18.1701 0
rtoes 60.2346 0 0
lowerback -2.71593 -1.55824 -0.519451
upperback -0.65104 -2.01027 -7.4245
thorax 0.602563 -1.01788 -7.51623
lowerneck -11.3078 0.531672 6.82286
upperneck 3.65622 -0.433715 2.31939
head 3.182 -0.00416524 -0.468448
lclavicle -1.52107e-14 -1.78464e-14 0
lhumerus -59.343 -46.5091 116.41
lradius 54.3786 0 0
lwrist 25.9268 0 0
lhand 39.1616 29.7434 0
lfingers 7.12502 0 0
lthumb 61.6824 41.5163 0
rclavicle -1.52107e-14 -1.78464e-14 0
rhumerus -4.6422 -23.6139 -14.0651
rradius 58.7035 0 0
rwrist -22.5391 0 0
rhand -37.4134 -57.7905 0
rfingers 7.12502 0 0
rthumb -10.4593 -504.908 0
208
root 4.79248 15.0437 -25.4947 7.42376 -1.07818 5.22041
lfemur 6.23061 -2.60487 1.43615
ltibia 7.09512 0 0
lfoot -35.3697 -11.4509 0
ltoes 47.5446 0 0
rfemur -31.9799 -20.3294 -7.77489
rtibia 51.318 0 0
rfoot -26.9082 18.1684 0
rtoes 60.2361 0 0
lowerback -2.41671 -1.59927 -0.571074
upperback -0.659729 -2.07927 -7.26943
thorax 0.424983 -1.05477 -7.30929
lowerneck -11.1827 0.617518 6.75697
upperneck 3.55262 -0.290073 2.25114
head 3.12528 0.058844 -0.470048
lclavicle -1.12314e-14 -9.54165e-15 0
lhumerus -59.4143 -46.2671 116.508
lradius 54.5857 0 0
lwrist 25.8889 0 0
lhand 38.5115 29.5236 0
lfingers 7.12502 0 0
lthumb 61.1343 41.9322 0
rclavicle -1.12314e-14 -9.54165e-15 0
rhumerus -5.78522 -25.4146 -14.7438
rradius 61.8859 0 0
rwrist -22.611 0 0
rhand -41.0918 -59.1542 0
rfingers 7.12502 0 0
rthumb -14.0023 -536.808 0
209
root 4.76952 15.0432 -25.5122 7.52101 -0.873836 5.06743
lfemur 5.69338 -3.00843 1.69524
ltibia 7.59974 0 0
lfoot -35.1074 -11.1745 0
ltoes 47.7791 0 0
rfemur -32.1385 -20.5073 -7.46445
rtibia 51.4808 0 0
rfoot -27.0563 18.1668 0
rtoes 60.2377 0 0
lowerback -2.11749 -1.64029 -0.622696
upperback -0.668419 -2.14827 -7.11437
thorax 0.247402 -1.09166 -7.10235
lowerneck -11.0575 0.703364 6.69109
upperneck 3.44901 -0.146431 2.18289
head 3.06856 0.121853 -0.471649
lclavicle -7.25197e-15 -1.23687e-15 0
lhumerus -59.4855 -46.025 116.605
lradius 54.7928 0 0
lwrist 25.8509 0 0
lhand 37.8614 29.3039 0
lfingers 7.12502 0 0
lthumb 60.5862 42.348 0
rclavicle -7.25197e-15 -1.23687e-15 0
rhumerus -6.92824 -27.2153 -15.4225
rradius 65.0683 0 0
rwrist -22.6829 0 0
rhand -44.7702 -60.5179 0
rfingers 7.12502 0 0
rthumb -17.5453 -568.707 0
210
root 4.74729 15.0427 -25.5292 7.61515 -0.676015 4.91933
lfemur 5.17329 -3.39911 1.94606
ltibia 8.08826 0 0
lfoot -34.8534 -10.907 0
ltoes 48.0061 0 0
rfemur -32.2921 -20.6794 -7.16392
rtibia 51.6383 0 0
rfoot -27.1997 18.1653 0
rtoes 60.2391 0 0
lowerback -1.82782 -1.68 -0.672671
upperback -0.676831 -2.21507 -6.96426
thorax 0.0754891 -1.12737 -6.90202
lowerneck -10.9363 0.78647 6.6273
upperneck 3.34871 -0.00737381 2.11681
head 3.01365 0.182852 -0.473199
lclavicle -3.39959e-15 6.80286e-15 0
lhumerus -59.5545 -45.7906 116.699
lradius 54.9934 0 0
lwrist 25.8142 0 0
lhand 37.2321 29.0912 0
lfingers 7.12502 0 0
lthumb 60.0557 42.7505 0
rclavicle -3.39959e-15 6.80286e-15 0
rhumerus -8.03479 -28.9586 -16.0796
rradius 68.149 0 0
rwrist -22.7525 0 0
rhand -48.3311 -61.8381 0
rfingers 7.12502 0 0
rthumb -20.9752 -599.588 0
211
root 4.72652 15.0422 -25.545 7.70309 -0.491237 4.781
lfemur 4.68749 -3.76403 2.18034
ltibia 8.54457 0 0
lfoot -34.6162 -10.6571 0
ltoes 48.2181 0 0
rfemur -32.4355 -20.8402 -6.88321
rtibia 51.7854 0 0
rfoot -27.3336 18.1638 0
rtoes 60.2405 0 0
lowerback -1.55725 -1.71709 -0.719351
upperback -0.684689 -2.27746 -6.82404
thorax -0.0850889 -1.16073 -6.7149
lowerneck -10.8231 0.864097 6.56772
upperneck 3.25503 0.122515 2.05509
head 2.96236 0.239828 -0.474647
lclavicle 1.98785e-16 1.43125e-14 0
lhumerus -59.6189 -45.5717 116.787
lradius 55.1807 0 0
lwrist 25.7799 0 0
lhand 36.6442 28.8925 0
lfingers 7.12502 0 0
lthumb 59.5601 43.1265 0
rclavicle 1.98785e-16 1.43125e-14 0
rhumerus -9.06837 -30.5869 -16.6934
rradius 71.0267 0 0
rwrist -22.8175 0 0
rhand -51.6573 -63.0713 0
rfingers 7.12502 0 0
rthumb -24.1789 -628.433 0
212
root 4.71423 15.0583 -25.5648 7.77333 -0.259927 4.29045
lfemur 3.46957 -2.61391 2.82541
ltibia 10.3635 0 0
lfoot -33.2561 -10.7282 0
ltoes 47.6462 0 0
rfemur -32.3628 -20.6698 -6.24429
rtibia 51.5344 0 0
rfoot -27.4401 17.8795 0
rtoes 60.1619 0 0
lowerback -1.39988 -1.93958 -0.647641
upperback -0.561587 -2.57481 -6.43032
thorax -0.0547225 -1.30681 -6.33763
lowerneck -10.8924 1.10325 6.39804
upperneck 3.19153 0.470569 1.9029
head 2.96166 0.402855 -0.473547
lclavicle 4.70457e-15 1.25602e-14 0
lhumerus -59.5887 -45.1294 116.886
lradius 55.4561 0 0
lwrist 26.2721 0 0
lhand 34.1736 28.0935 0
lfingers 7.12502 0 0
lthumb 57.334 43.7597 0
rclavicle 4.70457e-15 1.25602e-14 0
rhumerus -9.94641 -26.1385 -18.3834
rradius 74.3591 0 0
rwrist -20.0125 0 0
rhand -49.0079 -59.1141 0
rfingers 7.12502 0 0
rthumb -21.6286 -653.512 0
